<?xml version="1.0" encoding="UTF-8" standalone="no"?>
<!-- Created with Inkscape (http://www.inkscape.org/) -->

<svg
   width="32"
   height="32"
   viewBox="0 0 8.4666666 8.4666666"
   version="1.1"
   id="svg1"
   inkscape:export-filename="favicon.png"
   inkscape:export-xdpi="96"
   inkscape:export-ydpi="96"
   inkscape:version="1.4.2 (ebf0e940d0, 2025-05-08)"
   sodipodi:docname="favicon.svg"
   xmlns:inkscape="http://www.inkscape.org/namespaces/inkscape"
   xmlns:sodipodi="http://sodipodi.sourceforge.net/DTD/sodipodi-0.dtd"
   xmlns="http://www.w3.org/2000/svg"
   xmlns:svg="http://www.w3.org/2000/svg">
  <sodipodi:namedview
     id="namedview1"
     pagecolor="#ffffff"
     bordercolor="#000000"
     borderopacity="0.25"
     inkscape:showpageshadow="2"
     inkscape:pageopacity="0.0"
     inkscape:pagecheckerboard="0"
     inkscape:deskcolor="#d1d1d1"
     inkscape:document-units="mm"
     inkscape:zoom="10.663424"
     inkscape:cx="20.443715"
     inkscape:cy="19.834154"
     inkscape:window-width="1348"
     inkscape:window-height="740"
     inkscape:window-x="5"
     inkscape:window-y="21"
     inkscape:window-maximized="1"
     inkscape:current-layer="layer1" />
  <defs
     id="defs1" />
  <g
     inkscape:label="Layer 1"
     inkscape:groupmode="layer"
     id="layer1">
    <rect
       style="fill:#2b1f5d;fill-opacity:1;stroke:#000000;stroke-width:0.107231;stroke-dasharray:none;stroke-opacity:1"
       id="rect2"
       width="0.67874569"
       height="5.6534657"
       x="0.78310072"
       y="6.2319026"
       transform="matrix(0.79758274,-0.60320956,0.56676377,0.82388035,0,0)" />
    <ellipse
       style="fill:#f088e9;fill-opacity:1;stroke-width:0.260963"
       id="path2"
       cx="3.3792336"
       cy="1.9100046"
       rx="2.3678789"
       ry="2.3671916"
       transform="matrix(0.96907401,0.24677028,-0.23508247,0.97197543,0,0)" />
    <path
       sodipodi:type="spiral"
       style="fill:#88d9f0;fill-opacity:1;fill-rule:evenodd;stroke:#000000;stroke-width:0.264583"
       id="path1"
       sodipodi:cx="3.0519044"
       sodipodi:cy="2.2082884"
       sodipodi:expansion="1"
       sodipodi:revolution="3"
       sodipodi:radius="2.741611"
       sodipodi:argument="-17.649181"
       sodipodi:t0="0"
       d="M 3.0519044,2.2082884 C 3.1016662,2.3364252 2.9037293,2.3385844 2.8389327,2.2909957 2.6633379,2.1620332 2.7418817,1.8989475 2.88649,1.782345 3.1451603,1.5737705 3.5217972,1.701917 3.6908196,1.9601667 3.9388666,2.3391586 3.7556178,2.8425701 3.3827334,3.0601753 2.8857371,3.3502087 2.2518014,3.1098562 1.9870459,2.6218246 1.6538781,2.0076867 1.9521992,1.2416642 2.555661,0.93045816 3.2865342,0.55354597 4.1854476,0.91027835 4.5427064,1.6293378 4.9637236,2.4767244 4.5483249,3.5089989 3.7135623,3.9120621 2.7497959,4.3774146 1.5838608,3.9031897 1.135159,2.9526536 0.62531554,1.872594 1.1584732,0.57279536 2.2248321,0.07857132 3.4211255,-0.47587337 4.8549317,0.1162918 5.3945933,1.2985088 5.9937199,2.6109938 5.342493,4.1789135 4.0443913,4.763949"
       transform="matrix(0.96838326,0.24659438,-0.22885573,0.94623032,0.38202114,-0.12522253)" />
  </g>
</svg>
